<svg width="438" height="113" viewBox="0 0 438 113" fill="none" xmlns="http://www.w3.org/2000/svg">
<path d="M346.4 34H309.6C307.07 34 305 36.07 305 38.6V80L314.2 70.8H346.4C348.93 70.8 351 68.73 351 66.2V38.6C351 36.07 348.93 34 346.4 34V34ZM346.4 66.2H312.36L309.6 68.96V38.6H346.4V66.2ZM339.5 54.7H334.9V50.1H339.5M330.3 54.7H325.7V50.1H330.3M321.1 54.7H316.5V50.1H321.1" fill="#4C5278"/>
<path d="M188.819 58.839V77H186.449V58.839H188.819ZM194.656 58.839V60.81H180.624V58.839H194.656ZM218.409 66.647V68.605H208.58V66.647H218.409ZM208.954 58.839V77H206.547V58.839H208.954V58.839ZM220.505 58.839V77H218.11V58.839H220.505V58.839ZM245.518 75.042V77H235.9V75.042H245.518V75.042ZM236.387 58.839V77H233.98V58.839H236.387V58.839ZM244.245 66.647V68.605H235.9V66.647H244.245V66.647ZM245.393 58.839V60.81H235.9V58.839H245.393V58.839ZM186.885 101.512L190.49 88.839H192.236L191.226 93.766L187.347 107H185.613L186.885 101.512V101.512ZM183.156 88.839L186.025 101.262L186.885 107H185.164L180.761 88.839H183.156V88.839ZM196.902 101.25L199.708 88.839H202.115L197.725 107H196.003L196.902 101.25V101.25ZM192.498 88.839L196.003 101.512L197.276 107H195.542L191.8 93.766L190.777 88.839H192.498V88.839ZM220.156 90.448L214.143 107H211.686L218.609 88.839H220.193L220.156 90.448V90.448ZM225.195 107L219.17 90.448L219.133 88.839H220.717L227.665 107H225.195ZM224.883 100.277V102.248H214.68V100.277H224.883V100.277ZM250.307 105.042V107H241.227V105.042H250.307ZM241.701 88.839V107H239.293V88.839H241.701ZM273.274 105.042V107H264.194V105.042H273.274ZM264.668 88.839V107H262.26V88.839H264.668Z" fill="white"/>
<path d="M221.4 0H184.6C182.07 0 180 2.07 180 4.6V46L189.2 36.8H221.4C223.93 36.8 226 34.73 226 32.2V4.6C226 2.07 223.93 0 221.4 0V0ZM221.4 32.2H187.36L184.6 34.96V4.6H221.4V32.2V32.2ZM214.5 20.7H209.9V16.1H214.5M205.3 20.7H200.7V16.1H205.3M196.1 20.7H191.5V16.1H196.1" fill="#00A3FF"/>
<path d="M377.805 53.695C378.065 53.435 378.065 53.002 377.805 52.755L376.245 51.195C375.999 50.935 375.565 50.935 375.305 51.195L374.079 52.415L376.579 54.915M366 60.5V63H368.5L375.872 55.621L373.372 53.121L366 60.5Z" fill="#A2A2FF"/>
<path d="M377.805 80.695C378.065 80.435 378.065 80.002 377.805 79.755L376.245 78.195C375.999 77.935 375.565 77.935 375.305 78.195L374.079 79.415L376.579 81.915M366 87.5V90H368.5L375.872 82.621L373.372 80.121L366 87.5Z" fill="white"/>
<path d="M406 51.667H403.5L402.786 51H399.214L398.5 51.667H396V53H406M396.714 61.667C396.715 61.8446 396.753 62.02 396.825 62.1822C396.897 62.3445 397.002 62.4901 397.133 62.61C397.401 62.86 397.764 63.001 398.143 63.001H403.857C404.236 63.001 404.599 62.86 404.867 62.61C404.998 62.4901 405.103 62.3445 405.175 62.1822C405.247 62.02 405.285 61.8446 405.286 61.667V53.667H396.714V61.667V61.667Z" fill="#A3A3FF"/>
<path d="M406 78.667H403.5L402.786 78H399.214L398.5 78.667H396V80H406M396.714 88.667C396.715 88.8446 396.753 89.02 396.825 89.1822C396.897 89.3445 397.002 89.4901 397.133 89.61C397.401 89.86 397.764 90.001 398.143 90.001H403.857C404.236 90.001 404.599 89.86 404.867 89.61C404.998 89.4901 405.103 89.3445 405.175 89.1822C405.247 89.02 405.285 88.8446 405.286 88.667V80.667H396.714V88.667V88.667Z" fill="white"/>
<path d="M25.2 43H2.8C2.0582 43.0026 1.34754 43.2985 0.823012 43.823C0.298481 44.3475 0.00263518 45.0582 0 45.8L0 71L5.6 65.4H25.2C25.9418 65.3974 26.6525 65.1015 27.177 64.577C27.7015 64.0525 27.9974 63.3418 28 62.6V45.8C27.9974 45.0582 27.7015 44.3475 27.177 43.823C26.6525 43.2985 25.9418 43.0026 25.2 43V43ZM25.2 62.6H4.48L2.8 64.28V45.8H25.2V62.6V62.6ZM21 55.6H18.2V52.8H21M15.4 55.6H12.6V52.8H15.4M9.8 55.6H7V52.8H9.8" fill="#00A3FF"/>
<path opacity="0.9" d="M45.2502 50.0699V64.9999H43.3022V50.0699H45.2502ZM50.0492 50.0699V51.6899H38.5132V50.0699H50.0492ZM62.0152 56.4889V58.0989H53.9352V56.4889H62.0152ZM54.2432 50.0699V64.9999H52.2642V50.0699H54.2432ZM63.7382 50.0699V64.9999H61.7692V50.0699H63.7382ZM76.7402 63.3899V64.9999H68.8342V63.3899H76.7402ZM69.2342 50.0699V64.9999H67.2552V50.0699H69.2342ZM75.6942 56.4889V58.0989H68.8342V56.4889H75.6942ZM76.6372 50.0699V51.6899H68.8342V50.0699H76.6372ZM88.3262 60.4879L91.2902 50.0699H92.7262L91.8952 54.1199L88.7062 64.9999H87.2802L88.3262 60.4879V60.4879ZM85.2602 50.0699L87.6182 60.2829L88.3252 64.9999H86.9102L83.2902 50.0699H85.2592H85.2602ZM96.5602 60.2729L98.8672 50.0699H100.846L97.2372 64.9999H95.8222L96.5602 60.2729V60.2729ZM92.9402 50.0699L95.8212 60.4879L96.8682 64.9999H95.4432L92.3672 54.1209L91.5262 50.0709H92.9412L92.9402 50.0699ZM108.116 51.3929L103.174 64.9999H101.154L106.845 50.0699H108.147L108.116 51.3929V51.3929ZM112.259 64.9999L107.306 51.3929L107.275 50.0699H108.578L114.289 64.9999H112.259ZM112.002 59.4729V61.0929H103.615V59.4729H112.002ZM125.343 63.3899V64.9999H117.878V63.3899H125.343ZM118.268 50.0699V64.9999H116.289V50.0699H118.268ZM136.663 63.3899V64.9999H129.198V63.3899H136.663ZM129.588 50.0699V64.9999H127.609V50.0699H129.588Z" fill="white"/>
<path d="M433.002 59.093L434.873 57.222H427.889V55.778H434.873L433.002 53.907L434.028 52.889L437.639 56.5L434.028 60.111L433.002 59.093V59.093ZM436.556 50C436.939 50 437.306 50.152 437.577 50.423C437.848 50.694 438 51.061 438 51.444V54.817L436.556 53.373V51.445H426.444V61.556H436.556V59.628L438 58.183V61.556C438 61.939 437.848 62.306 437.577 62.577C437.306 62.848 436.939 63 436.556 63H426.444C425.643 63 425 62.35 425 61.556V51.444C424.999 51.2542 425.036 51.0662 425.109 50.8908C425.181 50.7154 425.288 50.556 425.422 50.4218C425.556 50.2876 425.715 50.1812 425.891 50.1088C426.066 50.0365 426.254 49.9995 426.444 50H436.556V50Z" fill="white"/>
</svg>
